<svg xmlns="http://www.w3.org/2000/svg" xmlns:xlink="http://www.w3.org/1999/xlink" viewBox="0 0 1920 500"><defs><clipPath id="a"><rect x="360" width="1200" height="500" style="fill:none"/></clipPath><clipPath id="b"><rect x="394.96" y="67.37" width="352.46" height="93.34" rx="10" ry="10" style="fill:none;stroke:#4db6ac;stroke-miterlimit:10;stroke-width:4px"/></clipPath><clipPath id="c"><rect x="417.79" y="345.53" width="253.89" height="93.34" rx="10" ry="10" style="fill:none;stroke:#4db6ac;stroke-miterlimit:10;stroke-width:3.394879115498002px"/></clipPath><clipPath id="d"><rect x="956.33" y="67.37" width="101.42" height="93.34" rx="10" ry="10" style="fill:none;stroke:#4db6ac;stroke-miterlimit:10;stroke-width:4px"/></clipPath><clipPath id="e"><rect x="1301.64" y="33.33" width="163.89" height="93.34" rx="10" ry="10" style="fill:none;stroke:#4db6ac;stroke-miterlimit:10;stroke-width:3.394879115498002px"/></clipPath><clipPath id="f"><rect x="1372.08" y="168.35" width="186.89" height="93.34" rx="10" ry="10" style="fill:none;stroke:#4db6ac;stroke-miterlimit:10;stroke-width:3.394879115498002px"/></clipPath><clipPath id="g"><rect x="904.29" y="371.21" width="196.89" height="93.34" rx="10" ry="10" style="fill:none;stroke:#4db6ac;stroke-miterlimit:10;stroke-width:3.394879115498002px"/></clipPath><clipPath id="h"><rect x="1302" y="327.5" width="221.89" height="93.34" rx="10" ry="10" style="fill:none;stroke:#4db6ac;stroke-miterlimit:10;stroke-width:3.394879115498002px"/></clipPath></defs><title>header</title><g style="clip-path:url(#a)"><rect width="1920" height="500" style="fill:#80cbc4"/></g><text transform="translate(419.18 134.95)" style="font-size:27px;fill:#26a69a;font-family:Montserrat">P<tspan x="18.47" y="0">r</tspan><tspan x="28.92" y="0">og</tspan><tspan x="64.18" y="0">r</tspan><tspan x="74.76" y="0">amming re</tspan><tspan x="222.67" y="0">a</tspan><tspan x="238.35" y="0">tre</tspan><tspan x="277.04" y="0">a</tspan><tspan x="292.73" y="0">t</tspan></text><g style="clip-path:url(#b)"><rect x="385.15" y="57.41" width="371.53" height="35.59" style="fill:#4db6ac"/><circle cx="409.42" cy="79.41" r="7.48" style="fill:#80cbc4"/><circle cx="430.55" cy="79.41" r="7.48" style="fill:#80cbc4"/></g><rect x="394.96" y="67.37" width="352.46" height="93.34" rx="10" ry="10" style="fill:none;stroke:#4db6ac;stroke-miterlimit:10;stroke-width:4px"/><text transform="translate(447 413.11)" style="font-size:27px;fill:#26a69a;font-family:Montserrat">Hac<tspan x="52.38" y="0">k</tspan><tspan x="67.82" y="0">ages tech</tspan></text><g style="clip-path:url(#c)"><rect x="407.98" y="335.57" width="371.53" height="35.59" style="fill:#4db6ac"/><circle cx="432.25" cy="357.57" r="7.48" style="fill:#80cbc4"/><circle cx="453.38" cy="357.57" r="7.48" style="fill:#80cbc4"/></g><rect x="417.79" y="345.53" width="253.89" height="93.34" rx="10" ry="10" style="fill:none;stroke:#4db6ac;stroke-miterlimit:10;stroke-width:3.394879115498002px"/><text transform="translate(985.17 134.95)" style="font-size:27px;fill:#26a69a;font-family:Montserrat">CIP</text><g style="clip-path:url(#d)"><rect x="946.51" y="57.41" width="371.53" height="35.59" style="fill:#4db6ac"/><circle cx="970.78" cy="79.41" r="7.48" style="fill:#80cbc4"/><circle cx="991.91" cy="79.41" r="7.48" style="fill:#80cbc4"/></g><rect x="956.33" y="67.37" width="101.42" height="93.34" rx="10" ry="10" style="fill:none;stroke:#4db6ac;stroke-miterlimit:10;stroke-width:4px"/><line x1="773" y1="113" x2="773" y2="139" style="fill:none;stroke:#4db6ac;stroke-linejoin:round;stroke-width:4px"/><line x1="773" y1="126" x2="926" y2="126" style="fill:none;stroke:#4db6ac;stroke-linejoin:round;stroke-width:4px"/><polyline points="926 114 938 126 926 138" style="fill:none;stroke:#4db6ac;stroke-linejoin:round;stroke-width:4px"/><line x1="1083" y1="113" x2="1083" y2="139" style="fill:none;stroke:#4db6ac;stroke-linejoin:round;stroke-width:4px"/><line x1="1083" y1="126" x2="1207" y2="126" style="fill:none;stroke:#4db6ac;stroke-linejoin:round;stroke-width:4px"/><line x1="1207" y1="84" x2="1266" y2="84" style="fill:none;stroke:#4db6ac;stroke-linejoin:round;stroke-width:4px"/><polyline points="1266 72 1278 84 1266 96" style="fill:none;stroke:#4db6ac;stroke-linejoin:round;stroke-width:4px"/><line x1="494" y1="185" x2="466" y2="185" style="fill:none;stroke:#4db6ac;stroke-linejoin:round;stroke-width:4px"/><line x1="480" y1="185" x2="480" y2="312" style="fill:none;stroke:#4db6ac;stroke-linejoin:round;stroke-width:4px"/><polyline points="492 314 480 326 468 314" style="fill:none;stroke:#4db6ac;stroke-linejoin:round;stroke-width:4px"/><line x1="1207" y1="422" x2="1207" y2="82" style="fill:none;stroke:#4db6ac;stroke-linejoin:round;stroke-width:4px"/><text transform="translate(1323.68 100.91)" style="font-size:27px;fill:#26a69a;font-family:Montserrat">Hackjam</text><g style="clip-path:url(#e)"><rect x="1291.83" y="23.37" width="371.53" height="35.59" style="fill:#4db6ac"/><circle cx="1316.1" cy="45.37" r="7.48" style="fill:#80cbc4"/><circle cx="1337.23" cy="45.37" r="7.48" style="fill:#80cbc4"/></g><rect x="1301.64" y="33.33" width="163.89" height="93.34" rx="10" ry="10" style="fill:none;stroke:#4db6ac;stroke-miterlimit:10;stroke-width:3.394879115498002px"/><text transform="translate(1395.82 235.92)" style="font-size:27px;fill:#26a69a;font-family:Montserrat">Hacknight</text><g style="clip-path:url(#f)"><rect x="1362.27" y="158.39" width="371.53" height="35.59" style="fill:#4db6ac"/><circle cx="1386.54" cy="180.38" r="7.48" style="fill:#80cbc4"/><circle cx="1407.67" cy="180.38" r="7.48" style="fill:#80cbc4"/></g><rect x="1372.08" y="168.35" width="186.89" height="93.34" rx="10" ry="10" style="fill:none;stroke:#4db6ac;stroke-miterlimit:10;stroke-width:3.394879115498002px"/><text transform="translate(933 438.78)" style="font-size:27px;fill:#26a69a;font-family:Montserrat">Hacklunch</text><g style="clip-path:url(#g)"><rect x="894.47" y="361.25" width="371.53" height="35.59" style="fill:#4db6ac"/><circle cx="918.75" cy="383.24" r="7.48" style="fill:#80cbc4"/><circle cx="939.88" cy="383.24" r="7.48" style="fill:#80cbc4"/></g><rect x="904.29" y="371.21" width="196.89" height="93.34" rx="10" ry="10" style="fill:none;stroke:#4db6ac;stroke-miterlimit:10;stroke-width:3.394879115498002px"/><text transform="translate(1327.38 395.07)" style="font-size:27px;fill:#26a69a;font-family:Montserrat">Open source</text><g style="clip-path:url(#h)"><rect x="1292.18" y="317.54" width="371.53" height="35.59" style="fill:#4db6ac"/><circle cx="1316.46" cy="339.53" r="7.48" style="fill:#80cbc4"/><circle cx="1337.59" cy="339.53" r="7.48" style="fill:#80cbc4"/></g><rect x="1302" y="327.5" width="221.89" height="93.34" rx="10" ry="10" style="fill:none;stroke:#4db6ac;stroke-miterlimit:10;stroke-width:3.394879115498002px"/><line x1="1207" y1="199" x2="1336" y2="199" style="fill:none;stroke:#4db6ac;stroke-linejoin:round;stroke-width:4px"/><polyline points="1336 187 1348 199 1336 211" style="fill:none;stroke:#4db6ac;stroke-linejoin:round;stroke-width:4px"/><line x1="1207" y1="380" x2="1267" y2="380" style="fill:none;stroke:#4db6ac;stroke-linejoin:round;stroke-width:4px"/><polyline points="1268 368 1280 380 1268 392" style="fill:none;stroke:#4db6ac;stroke-linejoin:round;stroke-width:4px"/><line x1="1209" y1="420" x2="1134" y2="420" style="fill:none;stroke:#4db6ac;stroke-linejoin:round;stroke-width:4px"/><polyline points="1134 432 1122 420 1134 408" style="fill:none;stroke:#4db6ac;stroke-linejoin:round;stroke-width:4px"/></svg>