<?xml version="1.0" encoding="UTF-8" standalone="no"?>
<svg width="33px" height="40px" viewBox="0 0 33 40" version="1.1" xmlns="http://www.w3.org/2000/svg" xmlns:xlink="http://www.w3.org/1999/xlink">
    <!-- Generator: Sketch 42 (36781) - http://www.bohemiancoding.com/sketch -->
    <title>Shape</title>
    <desc>Created with Sketch.</desc>
    <defs></defs>
    <g id="Page-1" stroke="none" stroke-width="1" fill="none" fill-rule="evenodd">
        <g id="Home-≥1200px" transform="translate(-965.000000, -173.000000)" fill-rule="nonzero" fill="#414A4A">
            <g id="location-outline" transform="translate(965.000000, 173.000000)">
                <path d="M16.5,4.125 C19.8185625,4.125 22.935,5.391375 25.273875,7.693125 C27.59625,9.9763125 28.875,13.0123125 28.875,16.231875 C28.875,19.4514375 27.59625,22.48125 25.2759375,24.7685625 L16.5,33.3980625 L7.726125,24.7644375 C5.4058125,22.48125 4.1270625,19.4514375 4.1270625,16.22775 C4.1270625,13.0040625 5.4058125,9.97425 7.726125,7.6869375 C10.0670625,5.391375 13.1855625,4.125 16.5,4.125 L16.5,4.125 Z M16.5,8.24340596e-15 C12.2780625,8.24340596e-15 8.052,1.584 4.8324375,4.7540625 C-1.6108125,11.0941875 -1.6108125,21.371625 4.8324375,27.71175 L16.5,39.1854375 L28.1675625,27.707625 C34.6108125,21.371625 34.6108125,11.092125 28.1675625,4.7540625 C24.948,1.584 20.724,0 16.5,0 L16.5,8.24340596e-15 Z M16.5,11.3416875 C17.87775,11.3416875 19.173,11.8779375 20.1465,12.849375 C22.1595,14.862375 22.1595,18.1335 20.1465,20.1444375 C19.1709375,21.1179375 17.87775,21.652125 16.5,21.652125 C15.12225,21.652125 13.8290625,21.115875 12.8535,20.1444375 C10.8405,18.1314375 10.8405,14.8603125 12.8535,12.849375 C13.8290625,11.8779375 15.1243125,11.3416875 16.5,11.3416875 L16.5,11.3416875 Z M16.5,9.2791875 C14.652,9.2791875 12.804,9.9845625 11.3953125,11.3911875 C8.575875,14.210625 8.575875,18.7831875 11.3953125,21.602625 C12.8060625,23.013375 14.6499375,23.714625 16.5,23.714625 C18.3500625,23.714625 20.196,23.00925 21.6046875,21.602625 C24.4220625,18.7831875 24.4220625,14.210625 21.6046875,11.3911875 C20.196,9.9825 18.348,9.2791875 16.5,9.2791875 Z" id="Shape"></path>
            </g>
        </g>
    </g>
</svg>